<svg width="64" height="64" viewBox="0 0 64 64" fill="none" xmlns="http://www.w3.org/2000/svg">
<g opacity="0.48" clip-path="url(#clip0_227_56652)">
<path d="M5.79883 19.456V44.544C5.79883 46.144 6.64363 47.616 8.03883 48.4224L29.7732 60.9664C31.1556 61.76 32.858 61.76 34.2532 60.9664L55.9876 48.4224C57.37 47.6288 58.2276 46.144 58.2276 44.544V19.456C58.2276 17.856 57.3828 16.384 55.9876 15.5776L34.2532 3.03362C32.8708 2.24002 31.1684 2.24002 29.7732 3.03362L8.03883 15.5776C6.65643 16.3712 5.79883 17.856 5.79883 19.456Z" fill="#213147"/>
<path d="M36.7478 36.864L33.6502 45.3632C33.5606 45.5936 33.5606 45.8624 33.6502 46.0928L38.975 60.7104L45.1446 57.152L37.7462 36.864C37.5798 36.3904 36.927 36.3904 36.7478 36.864Z" fill="#12AAFF"/>
<path d="M42.9562 22.5664C42.7898 22.0928 42.137 22.0928 41.9578 22.5664L38.8602 31.0656C38.7706 31.296 38.7706 31.5648 38.8602 31.7952L47.5898 55.744L53.7594 52.1856L42.9562 22.5664Z" fill="#12AAFF"/>
<path d="M32.0004 3.968C32.154 3.968 32.3076 4.0064 32.4484 4.0832L55.962 17.664C56.2308 17.8176 56.41 18.112 56.41 18.4192V45.568C56.41 45.888 56.2436 46.1696 55.962 46.3232L32.4484 59.9168C32.3204 59.9936 32.1668 60.032 32.0004 60.032C31.834 60.032 31.6932 59.9936 31.5524 59.9168L8.05164 46.336C7.78284 46.1824 7.60364 45.888 7.60364 45.5808V18.4192C7.60364 18.0992 7.77004 17.8176 8.05164 17.664L31.5652 4.0832C31.6932 4.0064 31.8596 3.968 32.0004 3.968ZM32.0004 0C31.1684 0 30.3236 0.2176 29.5812 0.6528L6.06764 14.2336C4.57004 15.0912 3.64844 16.6912 3.64844 18.4192V45.568C3.64844 47.296 4.58284 48.9088 6.06764 49.7664L29.5812 63.3472C30.3236 63.7824 31.1684 64 32.0004 64C32.8324 64 33.6772 63.7824 34.4196 63.3472L57.9332 49.7664C59.4436 48.9088 60.3524 47.3088 60.3524 45.568V18.4192C60.3524 16.6912 59.418 15.0784 57.9332 14.2208L34.4324 0.6528C33.6772 0.2176 32.8324 0 32.0004 0Z" fill="#9DCCED"/>
<path d="M16.4609 55.7696L18.6241 49.8432L22.9633 53.4656L18.9057 57.1776L16.4609 55.7696Z" fill="#213147"/>
<path d="M30.0296 16.4864H24.0648C23.6168 16.4864 23.22 16.7552 23.0664 17.1776L10.292 52.2112L16.4616 55.7696L30.5288 17.1904C30.6568 16.8448 30.4008 16.4864 30.0296 16.4864Z" fill="white"/>
<path d="M40.4613 16.4864H34.5093C34.0613 16.4864 33.6645 16.7552 33.5109 17.1776L18.9189 57.1776L25.0885 60.736L40.9605 17.2032C41.0885 16.8448 40.8197 16.4864 40.4613 16.4864Z" fill="white"/>
</g>
<defs>
<clipPath id="clip0_227_56652">
<rect width="64" height="64" fill="white"/>
</clipPath>
</defs>
</svg>
