<svg width="40" height="40" viewBox="0 0 40 40" fill="none" xmlns="http://www.w3.org/2000/svg">
<g opacity="0.8" clip-path="url(#clip0_227_56988)">
<circle cx="20" cy="20" r="20" fill="white"/>
<path d="M2.7881 9.71367C3.42743 8.82094 4.02156 7.89761 4.7419 7.06134C6.05206 5.54031 7.53569 4.23679 9.23459 3.15781C10.7586 2.18995 12.3658 1.42707 14.0856 0.893639C16.7634 0.0629315 19.497 -0.184092 22.2814 0.133664C24.3166 0.365927 26.2775 0.885513 28.145 1.727C29.2755 2.2363 30.3388 2.8656 31.381 3.54522C33.4813 4.91467 35.1637 6.6974 36.5703 8.7342C38.0725 10.9097 39.0487 13.3298 39.5841 15.9256C39.9602 17.7484 40.1189 19.5883 39.9575 21.4402C39.7586 23.7235 39.2515 25.9251 38.3042 28.0411C37.503 29.8308 36.514 31.4741 35.2477 32.9584C34.0088 34.4104 32.6117 35.6808 31.0063 36.7281C29.9131 37.4412 28.7736 38.0777 27.5705 38.5503C25.5577 39.3411 23.4703 39.8759 21.2862 39.9695C19.7484 40.0354 18.2193 40.0095 16.7023 39.7404C15.3994 39.5092 14.1277 39.1717 12.8827 38.7042C11.6749 38.2506 10.5035 37.7133 9.42415 37.0339C7.86804 36.0544 6.46526 34.8658 5.21696 33.4962C3.82611 31.9702 2.69838 30.2782 1.8355 28.4095C0.616554 25.7697 0.0171145 22.9863 -0.0185418 20.0821C-0.0319751 18.9898 0.0933193 17.9059 0.23893 16.8247C0.249378 16.7473 0.238764 16.6672 0.237934 16.5883C0.365302 16.5093 0.354025 16.3712 0.376994 16.2507C0.700885 14.5522 1.24717 12.929 1.98716 11.3661C2.24936 10.8127 2.61115 10.3077 2.7881 9.71367ZM26.1493 20.4412C26.6914 20.1532 27.2065 19.9881 27.6136 19.6245C29.1823 18.2232 29.6004 14.925 27.0541 13.3363C26.2609 12.8413 25.4147 12.4745 24.5026 12.1002C24.6534 10.8786 25.1418 9.73556 25.3005 8.48452C24.5479 8.29803 23.8429 8.05051 23.1093 7.97099C22.8093 9.14657 22.5218 10.2736 22.2242 11.4402C21.662 11.268 21.0831 11.2844 20.554 10.9863C20.7448 9.79311 21.1985 8.67516 21.3225 7.47761C20.5495 7.35621 19.8949 7.05521 19.1445 7.02278C18.8491 8.20102 18.5632 9.3411 18.2667 10.5233C16.7788 10.2953 15.4127 9.78357 13.9117 9.50844C13.5819 10.2473 13.4359 11.0268 13.3035 11.8562C13.7925 11.9716 14.2175 12.0737 14.6434 12.1722C15.7185 12.4208 16.013 13.0086 15.7578 13.9487C15.5762 14.6175 15.4123 15.2911 15.2452 15.9638C14.6444 18.3818 14.0484 20.8009 13.4441 23.2179C13.3079 23.7625 12.9686 23.9399 12.416 23.859C11.8718 23.7794 11.3582 23.535 10.7584 23.5528C10.4984 24.3846 9.9808 25.1176 9.79754 26.0359C11.2268 26.4001 12.6095 26.7523 14.0551 27.1206C13.9463 28.3816 13.4237 29.5356 13.2693 30.8057C13.994 30.9794 14.6761 31.1428 15.3874 31.3134C15.8562 30.1489 15.9643 28.925 16.4012 27.7204C16.9279 27.9912 17.5121 27.9125 18.0275 28.2534C17.7467 29.4145 17.4668 30.5712 17.1835 31.7424C17.9287 32.0091 18.6556 32.1179 19.4023 32.3038C19.7046 31.0928 19.9968 29.9216 20.2795 28.7891C20.4555 28.6986 20.5843 28.7155 20.706 28.7415C21.8762 28.992 23.0601 29.0505 24.2447 28.919C25.2703 28.8051 26.1803 28.4141 26.9105 27.6443C27.7224 26.7883 28.1302 25.7411 28.3266 24.6148C28.4866 23.6972 28.4457 22.7675 27.907 21.9554C27.4849 21.319 26.905 20.8334 26.1493 20.4412ZM17.6889 25.2222C19.1327 25.5809 20.5749 25.9644 22.0854 25.6886C22.891 25.5415 23.4982 25.1305 23.7426 24.3201C23.9731 23.5558 23.8391 22.8613 23.2722 22.2571C22.6826 21.6289 21.9244 21.3024 21.1426 21.0293C20.2086 20.7031 19.2617 20.4067 18.2412 20.3261C17.8501 21.9156 17.4706 23.4583 17.0826 25.0351C17.3298 25.1121 17.5069 25.177 17.6889 25.2222ZM22.7886 18.5616C23.587 18.4482 24.249 17.92 24.4436 17.2023C24.6815 16.3248 24.4156 15.5551 23.7054 15.0316C22.8996 14.4376 21.9717 14.1355 21.0129 13.9257C20.6558 13.8475 20.3044 13.6393 19.8723 13.7798C19.5287 15.176 19.1838 16.5782 18.8275 18.0261C20.1922 18.3707 21.4488 18.752 22.7886 18.5616Z" fill="#F39321"/>
</g>
<defs>
<clipPath id="clip0_227_56988">
<rect width="40" height="40" fill="white"/>
</clipPath>
</defs>
</svg>
