<svg width="64" height="64" viewBox="0 0 64 64" fill="none" xmlns="http://www.w3.org/2000/svg">
<g opacity="0.48" clip-path="url(#clip0_227_56653)">
<path d="M63.6809 31.9616C63.6809 49.4848 49.4857 63.68 31.9625 63.68C14.4393 63.68 0.244141 49.472 0.244141 31.9616C0.244141 14.4512 14.4393 0.243195 31.9625 0.243195C49.4857 0.243195 63.6809 14.4384 63.6809 31.9616Z" fill="#29296E"/>
<path d="M46.7199 23.4752L45.9135 20.9792C45.7471 20.4672 45.3503 20.0832 44.8383 19.9168L42.3295 19.1488C41.9839 19.0464 41.9839 18.56 42.3295 18.4448L44.8255 17.6384C45.3375 17.472 45.7215 17.0752 45.8879 16.5632L46.6559 14.0544C46.7583 13.7088 47.2447 13.7088 47.3599 14.0544L48.1663 16.5504C48.3327 17.0624 48.7295 17.4464 49.2415 17.6128L51.7503 18.3808C52.0959 18.4832 52.0959 18.9696 51.7503 19.0848L49.2543 19.8912C48.7423 20.0576 48.3583 20.4544 48.1919 20.9664L47.4239 23.4752C47.3215 23.8208 46.8351 23.8208 46.7199 23.4752Z" fill="#FAFAFA"/>
<path d="M3.12305 31.4624C3.87825 29.9904 5.36305 28.8768 6.91185 28.1728C8.47345 27.4816 10.2014 27.0464 11.891 26.9056C15.3086 26.5984 18.6238 27.1616 21.6574 28.16C23.219 28.6208 24.6142 29.2736 26.0606 29.9264C26.7646 30.2592 27.4174 30.6432 28.0958 31.0144L29.9646 32.1024C32.0254 33.3696 34.0222 34.4832 35.891 35.3536C37.7726 36.2112 39.4622 36.8 41.0622 37.0944C42.6622 37.3888 44.2878 37.3888 46.2846 36.928C48.2686 36.48 50.4958 35.5072 52.8382 34.2656C55.1806 33.024 57.587 31.5008 60.339 30.016C60.0574 33.1264 59.187 36.0448 57.8046 38.8608C56.3966 41.6384 54.4382 44.3648 51.5838 46.5536C48.7806 48.768 44.9278 50.3168 41.011 50.5472C37.0942 50.816 33.3566 49.9456 30.1822 48.6528C26.995 47.3344 24.243 45.6064 21.811 43.6864C21.1326 43.1616 20.7742 42.8544 20.275 42.432L18.8798 41.216C17.9454 40.4864 17.0366 39.6032 16.115 38.8864C14.2718 37.3376 12.4414 35.7888 10.4318 34.4576C9.42065 33.7792 8.38385 33.1392 7.19345 32.5888C6.60465 32.32 5.97745 32.064 5.31185 31.872C4.64625 31.616 3.94225 31.488 3.12305 31.4624Z" fill="#FF4F0A"/>
<path d="M3.12305 31.4624C3.50705 28.2624 5.00465 25.2544 7.39825 22.7072C9.77905 20.1728 13.491 18.2272 17.6254 17.9712C19.6606 17.8304 21.7214 18.0608 23.6286 18.5856C25.523 19.1104 27.2894 19.8784 28.8894 20.7744C29.683 21.2224 30.4382 21.7216 31.1806 22.2208L33.1646 23.7184L36.2622 26.1632C38.2718 27.7632 40.1918 29.2352 41.9582 30.464C43.7502 31.6928 45.2734 32.576 46.7198 33.1008C48.1662 33.6768 49.9838 33.8176 52.3902 33.216C53.5806 32.9344 54.835 32.4352 56.1662 31.8976C57.4846 31.3344 58.867 30.6688 60.3646 30.016C60.1854 31.6288 59.8526 33.2288 59.2382 34.7264C58.6366 36.2496 57.8558 37.7344 56.755 39.1168C56.1918 39.7952 55.5902 40.4736 54.8862 41.1008C54.1822 41.7152 53.4014 42.2912 52.5438 42.8032C50.8286 43.8016 48.7934 44.5184 46.707 44.7872C44.6206 45.0432 42.5214 44.9152 40.6142 44.5184C38.6942 44.1216 36.9534 43.4944 35.3406 42.752C32.1406 41.2672 29.4654 39.3984 27.0974 37.4144C25.907 36.4288 24.7934 35.392 23.7438 34.3424L22.5022 33.088C22.131 32.7296 21.747 32.3584 21.3758 32.0256C19.8398 30.6688 18.4318 29.6448 16.8958 29.0048C15.3598 28.3392 13.3886 28.0576 10.9822 28.5184C8.57585 28.9536 5.93905 30.0032 3.12305 31.4624Z" fill="#FAFAFA"/>
<path d="M15.8074 47.9616C15.8074 48.9088 15.0394 49.6768 14.0922 49.6768C13.145 49.6768 12.377 48.9088 12.377 47.9616C12.377 47.0144 13.145 46.2464 14.0922 46.2464C15.0394 46.2464 15.8074 47.0144 15.8074 47.9616Z" fill="#FAFAFA"/>
<path d="M15.8074 47.9616C15.8074 48.9088 15.0394 49.6768 14.0922 49.6768C13.145 49.6768 12.377 48.9088 12.377 47.9616C12.377 47.0144 13.145 46.2464 14.0922 46.2464C15.0394 46.2464 15.8074 47.0144 15.8074 47.9616Z" fill="#FAFAFA"/>
</g>
<defs>
<clipPath id="clip0_227_56653">
<rect width="64" height="64" fill="white"/>
</clipPath>
</defs>
</svg>
