<svg width="64" height="64" viewBox="0 0 64 64" fill="none" xmlns="http://www.w3.org/2000/svg">
<g opacity="0.48" clip-path="url(#clip0_227_56650)">
<circle cx="32" cy="32" r="32" fill="#F7F9FC"/>
<path d="M16.31 24.032L8.22465 19.9147C7.59532 21.1627 7.05132 22.464 6.62465 23.7867L15.2647 26.5813C15.542 25.7067 15.894 24.8533 16.31 24.032Z" fill="black"/>
<path d="M23.1793 16.7787L27.6593 24.5013C28.31 24.1173 29.014 23.8293 29.7393 23.6373L27.4247 15.0187C28.0113 14.8587 28.6193 14.7307 29.2167 14.6347L27.7873 5.67468C26.4113 5.89868 25.0353 6.21868 23.7127 6.65601L26.486 15.1467C25.6007 15.4347 24.7473 15.7867 23.9153 16.2133L19.8407 8.26668C18.6033 8.89601 17.4087 9.64268 16.278 10.464L21.6327 17.792C22.134 17.4187 22.6567 17.088 23.1793 16.7787Z" fill="black"/>
<path d="M47.222 23.168L39.51 27.648C39.894 28.2987 40.182 29.0027 40.374 29.728L48.9927 27.4027C49.1527 27.9893 49.2807 28.5867 49.3767 29.1947L58.3367 27.7653C58.1126 26.3893 57.782 25.0133 57.3553 23.6907L48.8647 26.464C48.5767 25.5787 48.214 24.7253 47.798 23.904L55.7447 19.8293C55.1153 18.592 54.3686 17.3973 53.5473 16.2667L46.2193 21.6213C46.5713 22.1333 46.9127 22.6453 47.222 23.168Z" fill="black"/>
<path d="M44.0753 8.21334C42.8273 7.58401 41.526 7.04001 40.2033 6.61334L37.4193 15.2533C38.294 15.5307 39.1473 15.8933 39.9687 16.3093L44.0753 8.21334Z" fill="black"/>
<path d="M40.8433 16.6187L36.31 24.48C36.9713 24.8533 37.5686 25.3227 38.1126 25.856L50.8273 13.1093C49.846 12.128 48.7686 11.2107 47.6486 10.4L42.4113 17.632C41.8993 17.2693 41.3873 16.928 40.8433 16.6187Z" fill="black"/>
<path d="M16.63 23.1467L24.4913 27.68C24.8647 27.0293 25.334 26.4213 25.8673 25.8773L13.1207 13.1733C12.1393 14.1547 11.222 15.232 10.4113 16.352L17.6327 21.6C17.27 22.0907 16.9393 22.6133 16.63 23.1467Z" fill="black"/>
<path d="M34.7526 14.4747L36.118 5.65334C34.7633 5.44001 33.3767 5.33334 32.0007 5.33334H31.9793V23.3387H32.0007C32.758 23.3387 33.5153 23.4347 34.23 23.6267L36.5553 14.8587C35.9687 14.6987 35.3606 14.5707 34.7526 14.4747Z" fill="black"/>
<path d="M23.6273 29.76L14.8593 27.424C14.6993 28.0213 14.5713 28.6187 14.4753 29.2373L5.65398 27.8613C5.44065 29.2267 5.33398 30.6133 5.33398 32H23.3393C23.3393 31.2427 23.4353 30.4853 23.6273 29.76Z" fill="black"/>
<path d="M47.6913 39.968L55.7766 44.0853C56.406 42.8373 56.95 41.536 57.3767 40.2133L48.7367 37.4187C48.4593 38.2933 48.1073 39.1467 47.6913 39.968Z" fill="black"/>
<path d="M40.822 47.2213L36.342 39.4987C35.6913 39.8827 34.9873 40.1707 34.262 40.3627L36.5767 48.9813C35.99 49.1413 35.382 49.2693 34.7847 49.3653L36.2033 58.3253C37.5793 58.1013 38.9553 57.7813 40.278 57.344L37.5047 48.8533C38.39 48.5653 39.2433 48.2133 40.0753 47.7867L44.15 55.7333C45.3873 55.104 46.582 54.3573 47.7127 53.536L42.358 46.208C41.8673 46.5813 41.3447 46.912 40.822 47.2213Z" fill="black"/>
<path d="M16.7793 40.832L24.4913 36.352C24.1073 35.7013 23.8193 34.9973 23.6273 34.272L15.0193 36.5867C14.8593 36 14.7313 35.4027 14.6353 34.7947L5.67532 36.224C5.89932 37.6 6.22998 38.976 6.65665 40.2987L15.1473 37.5253C15.4353 38.4107 15.798 39.264 16.214 40.0853L8.26732 44.16C8.89665 45.3973 9.64332 46.592 10.4647 47.7227L17.7927 42.368C17.43 41.8773 17.0887 41.3547 16.7793 40.832Z" fill="black"/>
<path d="M19.926 55.7867C21.174 56.416 22.4753 56.96 23.798 57.3867L26.582 48.7467C25.7073 48.4693 24.854 48.1067 24.0327 47.6907L19.926 55.7867Z" fill="black"/>
<path d="M23.158 47.3813L27.6913 39.52C27.03 39.1467 26.4327 38.6773 25.8887 38.144L13.174 50.8907C14.1553 51.872 15.2327 52.7893 16.3527 53.6L21.59 46.368C22.102 46.7413 22.614 47.072 23.158 47.3813Z" fill="black"/>
<path d="M47.3713 40.8533L39.51 36.32C39.1367 36.9707 38.6673 37.5787 38.134 38.1227L50.8807 50.8373C51.862 49.856 52.7793 48.7787 53.59 47.6587L46.3687 42.4107C46.7313 41.9093 47.062 41.3973 47.3713 40.8533Z" fill="black"/>
<path d="M29.7713 40.3733L27.446 49.1413C28.0433 49.3013 28.6407 49.4293 29.2593 49.5147L27.8833 58.3467C29.238 58.56 30.6247 58.6667 32.0007 58.6667H32.022V40.6613H32.0007C31.2433 40.6613 30.4967 40.5653 29.7713 40.3733Z" fill="black"/>
<path d="M40.662 32C40.662 32.7573 40.566 33.5147 40.374 34.24L49.142 36.576C49.302 35.9787 49.43 35.3813 49.526 34.7627L58.3473 36.1387C58.5606 34.784 58.6673 33.3867 58.6673 32H40.662Z" fill="black"/>
</g>
<defs>
<clipPath id="clip0_227_56650">
<rect width="64" height="64" fill="white"/>
</clipPath>
</defs>
</svg>
