<svg width="40" height="40" viewBox="0 0 40 40" fill="none" xmlns="http://www.w3.org/2000/svg">
<g opacity="0.8" clip-path="url(#clip0_227_56990)">
<circle cx="20" cy="20" r="20" fill="#F7F9FC"/>
<path d="M17.3721 26.6087C16.3974 26.7324 15.1094 25.8102 15.1388 24.4926C15.167 23.2328 16.0415 22.3276 17.4441 22.3155C18.5694 22.3057 19.6031 23.3534 19.5831 24.4279C19.5595 25.6996 18.6379 26.6086 17.3721 26.6087ZM27.5192 20.0046C27.5094 18.7517 26.6836 17.8773 25.3466 17.8246C24.1838 17.7787 23.243 18.624 23.1097 19.7246C22.9533 21.0152 23.9261 22.0939 25.2385 22.1358C26.4553 22.1902 27.5288 21.2251 27.5192 20.0046ZM17.3499 13.3751C16.4083 13.3758 15.136 14.1234 15.1221 15.5211C15.1108 16.6522 16.0041 17.6751 17.3706 17.6906C18.6011 17.7047 19.5398 16.7598 19.5401 15.5226C19.6339 14.3958 18.5001 13.3742 17.3499 13.3751ZM14.7264 22.1816C15.9774 22.1453 16.886 21.2997 16.9264 20.018C16.9628 18.863 15.9181 17.8573 14.7229 17.8468C13.5054 17.8361 12.5162 18.7974 12.5158 19.9914C12.4237 21.2047 13.5233 22.2166 14.7264 22.1816ZM20.428 15.5317C20.4797 16.7777 21.2496 17.6109 22.5833 17.6711C23.9664 17.7336 24.8357 16.5859 24.8608 15.5487C24.8863 14.4957 23.8896 13.2974 22.626 13.3916C21.5316 13.2723 20.3782 14.334 20.428 15.5317ZM22.6565 22.3188C21.3204 22.3492 20.4786 23.1744 20.4483 24.4574C20.4181 25.7333 21.5457 26.6228 22.6968 26.6239C23.8326 26.6249 24.9773 25.5477 24.8354 24.4982C24.9716 23.425 24.0182 22.2878 22.6565 22.3188ZM12.175 14.3365C11.4555 14.3154 10.9062 14.8161 10.889 15.5083C10.8695 16.303 11.3567 16.8384 12.1125 16.8527C12.8324 16.8663 13.3676 16.3624 13.3845 15.6555C13.4022 14.9183 12.8879 14.3573 12.175 14.3365ZM26.5647 15.5869C26.5724 16.2567 27.1319 16.783 27.8461 16.7922C28.5713 16.8015 29.1691 16.2417 29.1576 15.5643C29.1457 14.8655 28.5768 14.3333 27.8446 14.3357C27.1329 14.3382 26.5569 14.9013 26.5647 15.5869ZM18.6979 11.2041C18.6546 11.8443 19.3043 12.406 19.9839 12.3981C20.68 12.3901 21.2714 11.8342 21.2678 11.1913C21.2637 10.4584 20.7407 9.93206 20.0111 9.92665C19.1084 9.93862 18.7471 10.4759 18.6979 11.2041ZM27.9186 23.1476C27.2263 23.1335 26.6002 23.7018 26.5661 24.3752C26.5336 25.018 27.1501 25.6307 27.8582 25.6592C28.5263 25.6862 29.1464 25.0874 29.1579 24.4041C29.1689 23.7591 28.579 23.1611 27.9186 23.1476ZM12.178 25.6749C12.8358 25.6673 13.5152 25.0674 13.4567 24.4591C13.3883 23.7491 13.0651 23.2384 12.1697 23.2154C11.4344 23.1964 10.8965 23.6972 10.8949 24.385C10.8929 25.1693 11.4048 25.6839 12.178 25.6749ZM21.2168 28.8317C21.218 28.1339 20.6379 27.5843 19.916 27.5991C19.2125 27.6136 18.6634 28.1476 18.6625 28.8181C18.6614 29.5644 19.1761 30.0755 19.9271 30.0739C20.6503 30.0724 21.2156 29.528 21.2168 28.8317ZM31.8098 18.9084C31.2388 18.8963 30.6968 19.3824 30.6745 19.9267C30.6514 20.4894 31.173 21.0386 31.7659 21.0443C32.2567 21.049 32.8636 20.6968 32.846 20.004C32.8629 19.4239 32.3869 18.9206 31.8098 18.9084ZM13.0461 10.1981C13.0707 10.7585 13.5544 11.1777 14.147 11.1523C14.756 11.1262 15.1853 10.6548 15.157 10.0433C15.1296 9.45195 14.6278 8.96748 14.0644 8.98867C13.4298 9.01246 13.0158 9.50425 13.0461 10.1981ZM8.23578 18.9521C7.67596 18.9488 7.12304 19.4705 7.11537 20.0092C7.10748 20.5651 7.63047 21.0798 8.20459 21.0811C8.80835 21.0825 9.27359 20.6525 9.27669 20.09C9.28049 19.4155 8.85991 18.9558 8.23578 18.9521ZM13.0563 29.8971C13.053 30.5194 13.5216 31.0073 14.129 31.0142C14.7299 31.0211 15.2123 30.5339 15.2172 29.9151C15.2216 29.3526 14.7632 28.9116 14.1685 28.9064C13.5206 28.9009 13.0593 29.3117 13.0563 29.8971ZM25.9107 28.877C25.3021 28.888 24.823 29.3633 24.8356 29.9434C24.8476 30.4932 25.3759 31.0107 25.9272 31.0126C26.4585 31.0144 26.9972 30.4631 26.9967 29.9181C26.9961 29.3349 26.5072 28.8662 25.9107 28.877ZM25.8484 11.091C26.4531 11.1021 26.9542 10.6566 26.9811 10.0841C27.0061 9.55163 26.4682 9.00022 25.9101 8.98621C25.2887 8.97062 24.847 9.39433 24.8348 10.0179C24.822 10.6641 25.2143 11.0794 25.8484 11.091ZM19.9772 6.75128C20.4678 6.75107 20.8396 6.37577 20.8367 5.88371C20.8336 5.3578 20.5052 5.01012 20.0021 5.00021C19.4807 4.98995 19.1045 5.36232 19.108 5.88501C19.1112 6.37112 19.4929 6.75148 19.9772 6.75128ZM7.42348 27.9659C7.8864 27.9958 8.37438 27.5472 8.37629 27.09C8.37798 26.6683 7.9333 26.218 7.48912 26.1918C7.07727 26.1674 6.58224 26.6315 6.57357 27.0501C6.56421 27.5029 6.96648 27.9363 7.42348 27.9659ZM19.9325 33.2399C19.49 33.243 19.0522 33.676 19.0447 34.118C19.0371 34.564 19.4594 34.9925 19.9139 34.9999C20.3954 35.0077 20.8414 34.5734 20.8358 34.1021C20.8307 33.6751 20.3716 33.2369 19.9325 33.2399ZM33.4768 12.8906C33.4603 12.4696 32.9929 12.0375 32.5497 12.0335C32.1261 12.0298 31.6413 12.5031 31.6462 12.9157C31.6514 13.3392 32.1298 13.8181 32.5386 13.8092C32.9884 13.7992 33.4931 13.3051 33.4768 12.8906ZM33.4805 26.9989C33.4705 26.5347 33.0791 26.1855 32.5731 26.1892C32.0931 26.1929 31.6772 26.5943 31.6947 27.037C31.7132 27.5061 32.1012 27.8693 32.582 27.8677C33.1331 27.8659 33.4918 27.5191 33.4805 26.9989ZM6.56886 12.9746C6.55984 13.4801 6.90895 13.8147 7.44151 13.8111C7.96211 13.8076 8.31149 13.4606 8.2986 12.9598C8.28565 12.4527 7.94668 12.1311 7.427 12.1329C6.91627 12.1346 6.57794 12.4665 6.56886 12.9746ZM27.2789 6.52528C27.2711 6.95848 27.5832 7.1624 27.9469 7.18298C28.3268 7.20444 28.614 6.99376 28.6314 6.56479C28.6481 6.15531 28.3803 5.85165 27.9857 5.83996C27.6154 5.82895 27.2858 6.14129 27.2789 6.52528ZM3.33331 20.0237C3.32028 20.3392 3.72679 20.7682 4.05152 20.7239C4.42873 20.6725 4.70579 20.4573 4.73058 20.055C4.75354 19.6825 4.41697 19.3733 4.02103 19.3721C3.66981 19.371 3.34768 19.6762 3.33331 20.0237ZM27.3311 33.4611C27.3224 33.7867 27.6952 34.1383 28.0547 34.1435C28.3497 34.1478 28.741 33.7522 28.7214 33.4454C28.6955 33.0414 28.4493 32.8356 28.1352 32.7998C27.619 32.7915 27.3421 33.0495 27.3311 33.4611ZM12.0238 5.85664C11.6637 5.78848 11.3301 6.15018 11.3234 6.54442C11.3167 6.94009 11.5237 7.16165 11.9183 7.1987C12.3469 7.2389 12.6474 6.96887 12.6614 6.47667C12.6928 6.1201 12.3934 5.92664 12.0238 5.85664ZM36.6652 19.9721C36.6386 19.5853 36.4122 19.3238 36.0048 19.2719C35.6311 19.2243 35.3315 19.5543 35.3115 19.9668C35.2892 20.426 35.6043 20.5468 35.9142 20.6274C36.3318 20.6353 36.6891 20.3197 36.6652 19.9721ZM12.1026 32.8029C11.7801 32.7702 11.3166 33.139 11.3384 33.4593C11.3646 33.8423 11.6025 34.1164 12.0037 34.1499C12.4074 34.1835 12.6649 33.9654 12.7215 33.659C12.7684 33.1865 12.4832 32.8415 12.1026 32.8029Z" fill="#1F6FCD"/>
</g>
<defs>
<clipPath id="clip0_227_56990">
<rect width="40" height="40" fill="white"/>
</clipPath>
</defs>
</svg>
