<svg width="64" height="64" viewBox="0 0 64 64" fill="none" xmlns="http://www.w3.org/2000/svg">
<g opacity="0.48" clip-path="url(#clip0_227_56651)">
<circle cx="32" cy="32" r="32" fill="#F7F9FC"/>
<path d="M46.2952 46.2476C46.2952 46.2476 39.8501 38.7284 37.7017 36.2141C37.4538 35.9308 37.3712 35.5413 37.4538 35.1871C37.5247 34.9865 37.6663 34.774 37.7962 34.6205L38.7877 33.5228L49.7892 46.2476H46.2952ZM39.496 46.2476L31.5164 36.9342L31.115 36.4266C30.7373 35.9898 30.7491 35.317 31.1386 34.892L46.0237 17.5517H49.7066L34.7389 34.6678C34.3494 35.0927 34.3375 35.7655 34.7153 36.2023L43.3559 46.2476H39.496ZM30.1943 32.5666C27.1134 36.1315 18.461 46.2476 18.461 46.2476H14.6128L26.3933 32.602C26.7711 32.1653 26.7711 31.516 26.3933 31.0911L14.7072 17.5635H18.4019L30.1589 31.2091C30.4658 31.6105 30.513 32.1889 30.1943 32.5666ZM30.0526 40.3101L28.9076 41.644L24.9532 46.2594H21.3766L28.943 37.4535C28.943 37.4535 29.7811 38.4569 30.0762 38.7874C30.454 39.2242 30.4422 39.8852 30.0526 40.3101ZM24.906 17.5635C24.906 17.5635 31.2449 25.1418 33.5349 27.4908C33.9008 27.8568 33.83 28.3407 33.4995 28.7303C32.2836 30.1586 32.2482 30.1822 32.2482 30.1822L21.353 17.5517H24.906V17.5635ZM34.4084 23.501L35.5534 22.1672L39.5078 17.5517H43.0844L35.518 26.3576C35.518 26.3576 34.6799 25.3543 34.3848 25.0238C34.007 24.587 34.0188 23.926 34.4084 23.501ZM32.0003 2.66669C15.805 2.66669 2.66699 15.7929 2.66699 32C2.66699 48.1953 15.805 61.3333 32.0003 61.3333C48.1956 61.3333 61.3337 48.1953 61.3337 32C61.3337 15.7929 48.1956 2.66669 32.0003 2.66669Z" fill="black"/>
</g>
<defs>
<clipPath id="clip0_227_56651">
<rect width="64" height="64" fill="white"/>
</clipPath>
</defs>
</svg>
