<svg width="40" height="40" viewBox="0 0 40 40" fill="none" xmlns="http://www.w3.org/2000/svg">
<g opacity="0.8" clip-path="url(#clip0_227_56991)">
<path d="M20 0C31.04 0 40 8.952 40 20C40 31.048 31.04 40 20 40C8.96 40 0 31.04 0 20C0 8.96 8.952 0 20 0Z" fill="black"/>
<path fill-rule="evenodd" clip-rule="evenodd" d="M9.24734 18.088H27.7593C27.9913 18.088 28.2073 18.176 28.3673 18.344L31.2953 21.288C31.8393 21.832 31.4553 22.76 30.6873 22.76H12.1753C11.9433 22.76 11.7273 22.672 11.5673 22.504L8.63934 19.56C8.09534 19.024 8.47934 18.088 9.24734 18.088ZM8.63134 14.184L11.5593 11.24C11.7273 11.072 11.9433 10.984 12.1673 10.984H30.6713C31.4393 10.984 31.8313 11.912 31.2793 12.456L28.3593 15.4C28.1993 15.568 27.9753 15.656 27.7513 15.656H9.24734C8.47934 15.656 8.09534 14.728 8.63134 14.184ZM31.2873 26.68L28.3593 29.632C28.1993 29.792 27.9753 29.888 27.7513 29.888H9.24734C8.47934 29.888 8.09534 28.96 8.63134 28.416L11.5593 25.464C11.7273 25.304 11.9433 25.208 12.1673 25.208H30.6713C31.4473 25.2 31.8393 26.128 31.2873 26.68Z" fill="url(#paint0_linear_227_56991)"/>
</g>
<defs>
<linearGradient id="paint0_linear_227_56991" x1="9.70013" y1="30.6932" x2="30.2265" y2="10.1668" gradientUnits="userSpaceOnUse">
<stop stop-color="#CB4EE8"/>
<stop offset="1" stop-color="#10F4B1"/>
</linearGradient>
<clipPath id="clip0_227_56991">
<rect width="40" height="40" fill="white"/>
</clipPath>
</defs>
</svg>
