<svg width="541" height="541" viewBox="0 0 541 541" fill="none" xmlns="http://www.w3.org/2000/svg">
<circle cx="270.738" cy="271.149" r="123.328" transform="rotate(-45 270.738 271.149)" fill="white" fill-opacity="0.04"/>
<circle opacity="0.8" cx="270.445" cy="270.443" r="163" transform="rotate(-45 270.445 270.443)" stroke="#8F9BB3" stroke-opacity="0.24" stroke-width="2"/>
<circle cx="270.738" cy="271.149" r="88.0971" transform="rotate(-45 270.738 271.149)" fill="#8F9BB3" fill-opacity="0.16"/>
<rect x="210.15" y="210.149" width="120" height="120" rx="60" fill="black" fill-opacity="0.01"/>
<g clip-path="url(#clip0_214_56533)">
<path fill-rule="evenodd" clip-rule="evenodd" d="M297.389 245.309L306.495 241.221L306.579 241.304L300.996 249.249L300.897 249.236C300.852 248.607 300.803 247.981 300.754 247.347C300.731 247.063 300.709 246.777 300.687 246.488C300.544 246.497 300.454 246.58 300.368 246.658C300.342 246.682 300.316 246.706 300.29 246.727C299.388 247.44 298.486 248.153 297.585 248.867C295.855 250.238 294.125 251.608 292.389 252.971C292.117 253.185 292.081 253.319 292.287 253.609C294.792 257.123 296.456 261.158 297.151 265.407C298.141 271.395 297.386 277.18 294.671 282.618C290.354 291.265 283.341 296.636 273.806 298.497C264.635 300.276 256.436 297.931 249.272 292.005C249.24 291.979 249.208 291.954 249.176 291.929C249.028 291.813 248.877 291.695 248.789 291.506C248.933 291.437 249.023 291.511 249.105 291.578C249.13 291.599 249.154 291.618 249.178 291.634C252.237 293.518 255.516 294.856 259.062 295.521C259.475 295.597 259.893 295.651 260.312 295.705C260.573 295.738 260.834 295.772 261.093 295.811C261.306 295.842 261.464 295.799 261.531 295.576C262.058 293.813 262.376 292.036 261.996 290.197C261.947 289.927 261.844 289.668 261.694 289.437C261.5 289.151 261.306 288.866 261.112 288.58C260.518 287.705 259.923 286.829 259.311 285.965C258.856 285.324 258.315 284.758 257.586 284.4C257.267 284.244 256.924 284.181 256.506 284.105C256.472 284.099 256.438 284.093 256.403 284.086C257.539 282.848 259.011 282.368 260.475 281.89C260.759 281.798 261.042 281.705 261.322 281.607C260.049 281.635 258.843 281.962 257.676 282.406C256.184 282.987 254.771 283.752 253.471 284.682C249.975 287.126 245.999 288.812 241.802 289.63C241.5 289.681 241.196 289.716 240.891 289.736C238.626 289.964 237.403 287.365 238.308 285.698C239.04 284.361 240.031 283.181 241.225 282.226C243.89 280.058 246.821 278.273 249.749 276.5C251.864 275.214 254.054 274.061 256.244 272.909C256.432 272.81 256.621 272.71 256.81 272.611C257.296 272.354 257.754 272.053 258.212 271.751C258.566 271.517 258.921 271.283 259.289 271.071C259.667 270.854 260.051 270.651 260.446 270.463C261.038 270.181 261.623 270.214 262.23 270.399C262.726 270.551 263.035 270.88 262.998 271.376C262.928 272.367 262.82 273.36 262.208 274.212C261.62 275.03 260.72 275.19 259.822 275.349L259.797 275.353C259.282 275.444 258.76 275.517 258.238 275.557C256.947 275.656 255.921 276.276 255.008 277.125C254.486 277.608 253.968 278.096 253.449 278.584C252.785 279.209 252.12 279.834 251.446 280.452C249.744 282.012 247.985 283.508 245.933 284.616C245.736 284.723 245.533 284.82 245.331 284.918C245.119 285.021 244.906 285.123 244.699 285.236C245.544 285.126 246.325 284.824 247.093 284.478C249.266 283.504 251.145 282.095 252.927 280.549C254.123 279.51 255.309 278.46 256.407 277.323C257.031 276.677 257.778 276.445 258.636 276.396C259.597 276.361 260.555 276.248 261.498 276.058C262.482 275.839 263.206 275.358 263.596 274.373C264.034 273.271 264.444 272.196 264.104 270.981C263.804 269.906 263.198 269.394 262.069 269.279C260.884 269.151 259.692 269.453 258.715 270.129C257.986 270.612 257.273 271.115 256.558 271.618L256.492 271.665C256.421 271.726 256.332 271.76 256.239 271.763C256.146 271.766 256.055 271.737 255.981 271.681C254.957 271.065 253.888 270.532 252.819 269.999C252.393 269.787 251.967 269.574 251.544 269.357C248.827 267.959 247.59 265.013 248.703 262.391C249.547 260.407 251.193 259.322 253.194 258.707C254.703 258.25 256.204 258.189 257.643 258.973C258.605 259.503 259.404 260.282 259.953 261.228C260.509 262.151 261.234 262.832 262.287 263.134C262.536 263.205 262.542 263.321 262.449 263.548C262.109 264.38 262.161 264.579 262.803 265.181C263.534 265.865 263.398 266.718 262.489 267.122C262.242 267.236 261.977 267.33 261.711 267.425C261.685 267.434 261.66 267.443 261.635 267.452C261.613 267.46 261.589 267.467 261.566 267.474C261.443 267.513 261.313 267.554 261.304 267.69C261.289 267.884 261.487 267.945 261.633 267.98C263.047 268.299 264.453 268.458 265.799 267.721C266.311 267.44 266.81 267.138 267.309 266.836C267.978 266.431 268.646 266.026 269.346 265.673C270.176 265.254 271.029 264.883 271.902 264.559C273.98 263.784 275.787 262.544 277.59 261.292C284.859 256.247 292.128 251.202 299.399 246.158C299.461 246.115 299.522 246.069 299.592 246.016C299.667 245.96 299.751 245.897 299.855 245.823L297.412 245.389L297.389 245.309ZM276.299 292.942C278.942 291.55 281.365 289.863 283.407 287.678C289.829 280.783 292.275 272.725 290.522 263.47C290.195 261.806 289.689 260.182 289.015 258.625C288.862 258.759 288.71 258.893 288.561 259.026C288.223 259.324 287.893 259.617 287.556 259.903C285.023 262.063 282.61 264.333 280.481 266.907C278.9 268.817 277.078 270.514 275.145 272.083C274.702 272.449 274.355 272.459 273.869 272.16C273.108 271.68 272.312 271.257 271.487 270.894C270.672 270.543 269.838 270.253 268.938 270.171C269.958 270.615 270.917 271.186 271.792 271.869C273.243 272.994 274.575 274.196 275.412 275.901C277.521 280.2 277.769 284.685 277.004 289.305C276.873 290.086 276.692 290.855 276.512 291.625C276.415 292.035 276.319 292.444 276.231 292.856L276.2 292.942H276.299Z" fill="white"/>
<path d="M274.81 255.221L282.43 249.176C276.543 243.943 269.698 241.563 261.731 242C263.634 241.537 265.583 241.282 267.542 241.239C274.383 241.1 280.544 243.059 286.025 247.116C286.82 247.71 287.564 248.354 288.3 249.012C288.455 249.15 288.544 249.244 288.267 249.365C283.852 251.31 279.437 253.255 275.02 255.2C274.951 255.214 274.881 255.221 274.81 255.221Z" fill="white"/>
</g>
<g opacity="0.48">
<circle cx="270.443" cy="270.443" r="269.943" stroke="#8F9BB3" stroke-opacity="0.24"/>
</g>
<defs>
<clipPath id="clip0_214_56533">
<rect width="68.5714" height="68.5714" fill="white" transform="translate(238.008 235.863)"/>
</clipPath>
</defs>
</svg>
